<svg xmlns="http://www.w3.org/2000/svg" viewBox="0 0 100 100" width="100" height="100">
  <rect x="8" y="8" width="84" height="84" rx="12" fill="#1a1d17"/>
  <path d="M25 40 C25 24 35 18 50 18 C65 18 75 24 75 40 C75 52 68 58 64 64 L64 72 L36 72 L36 64 C32 58 25 52 25 40 Z" fill="#e0e0e0"/>
  <circle cx="40" cy="42" r="7" fill="#1a1d17"/>
  <circle cx="60" cy="42" r="7" fill="#1a1d17"/>
  <polygon points="50,48 46,56 54,56" fill="#1a1d17"/>
  <line x1="42" y1="66" x2="42" y2="72" stroke="#1a1d17" stroke-width="2"/>
  <line x1="50" y1="66" x2="50" y2="72" stroke="#1a1d17" stroke-width="2"/>
  <line x1="58" y1="66" x2="58" y2="72" stroke="#1a1d17" stroke-width="2"/>
  <polygon points="20,84 50,76 80,84 50,88" fill="#587b32"/>
</svg>